<?xml version="1.0" standalone="no"?>
<!DOCTYPE svg PUBLIC "-//W3C//DTD SVG 20010904//EN"
 "http://www.w3.org/TR/2001/REC-SVG-20010904/DTD/svg10.dtd">
<svg version="1.0" xmlns="http://www.w3.org/2000/svg"
 width="512.000000pt" height="512.000000pt" viewBox="0 0 512.000000 512.000000"
 preserveAspectRatio="xMidYMid meet">

<g transform="translate(0.000000,512.000000) scale(0.100000,-0.100000)"
fill="#00ff00" stroke="none">
<path d="M445 5110 c-112 -15 -214 -67 -296 -151 -56 -57 -90 -113 -121 -199
l-23 -65 0 -2135 0 -2135 23 -65 c32 -89 67 -145 127 -205 60 -60 116 -95 205
-127 l65 -23 2135 0 2135 0 65 23 c89 32 145 67 205 127 60 60 95 116 127 205
l23 65 0 2135 0 2135 -23 65 c-32 89 -67 145 -127 205 -60 60 -116 95 -205
127 l-65 23 -2095 1 c-1152 1 -2122 -2 -2155 -6z m1818 -1022 c58 -9 81 -16
88 -30 11 -21 -23 -353 -43 -415 -9 -31 -12 -33 -57 -33 -26 0 -98 7 -161 16
-238 33 -389 -10 -470 -135 -78 -123 -123 -347 -184 -921 -49 -460 -66 -800
-45 -899 14 -69 60 -128 117 -154 60 -27 177 -26 387 2 190 26 211 26 225 1
13 -25 -33 -408 -52 -427 -33 -32 -340 -76 -538 -77 -224 -1 -333 37 -456 159
-156 154 -213 361 -199 725 23 598 141 1388 255 1703 56 153 180 310 301 381
66 38 198 84 287 100 98 18 439 20 545 4z m1968 -8 c10 -6 19 -17 19 -24 0
-36 -863 -2983 -878 -2998 -15 -15 -49 -18 -254 -24 l-237 -7 -9 24 c-5 13
-60 691 -123 1506 -102 1334 -112 1484 -98 1498 12 12 58 16 251 22 l237 6 5
-24 c3 -13 23 -485 46 -1049 22 -564 43 -1045 47 -1070 5 -45 15 -7 479 1947
20 84 41 159 48 167 9 12 51 17 201 24 105 5 203 10 218 10 16 1 37 -3 48 -8z"/>
</g>
</svg>
